<svg width="319" height="126" viewBox="0 0 319 126" fill="none" xmlns="http://www.w3.org/2000/svg">
<path d="M316.01 69.0104C319.33 65.691 319.33 60.309 316.01 56.9896L261.917 2.89592C258.597 -0.423533 253.215 -0.423533 249.896 2.89592C246.576 6.21538 246.576 11.5973 249.896 14.9167L297.979 63L249.896 111.083C246.576 114.403 246.576 119.785 249.896 123.104C253.215 126.424 258.597 126.424 261.917 123.104L316.01 69.0104ZM15.5 71.5C20.1944 71.5 24 67.6944 24 63C24 58.3056 20.1944 54.5 15.5 54.5V71.5ZM46.5 54.5C41.8056 54.5 38 58.3056 38 63C38 67.6944 41.8056 71.5 46.5 71.5V54.5ZM77.5 71.5C82.1944 71.5 86 67.6944 86 63C86 58.3056 82.1944 54.5 77.5 54.5V71.5ZM108.5 54.5C103.806 54.5 100 58.3056 100 63C100 67.6944 103.806 71.5 108.5 71.5V54.5ZM139.5 71.5C144.194 71.5 148 67.6944 148 63C148 58.3056 144.194 54.5 139.5 54.5V71.5ZM170.5 54.5C165.806 54.5 162 58.3056 162 63C162 67.6944 165.806 71.5 170.5 71.5V54.5ZM201.5 71.5C206.194 71.5 210 67.6944 210 63C210 58.3056 206.194 54.5 201.5 54.5V71.5ZM232.5 54.5C227.806 54.5 224 58.3056 224 63C224 67.6944 227.806 71.5 232.5 71.5V54.5ZM263.5 71.5C268.194 71.5 272 67.6944 272 63C272 58.3056 268.194 54.5 263.5 54.5V71.5ZM294.5 54.5C289.806 54.5 286 58.3056 286 63C286 67.6944 289.806 71.5 294.5 71.5V54.5ZM0 71.5H15.5V54.5H0V71.5ZM46.5 71.5H77.5V54.5H46.5V71.5ZM108.5 71.5H139.5V54.5H108.5V71.5ZM170.5 71.5H201.5V54.5H170.5V71.5ZM232.5 71.5H263.5V54.5H232.5V71.5ZM294.5 71.5H310V54.5H294.5V71.5ZM316.01 69.0104C319.33 65.691 319.33 60.309 316.01 56.9896L261.917 2.89592C258.597 -0.423533 253.215 -0.423533 249.896 2.89592C246.576 6.21538 246.576 11.5973 249.896 14.9167L297.979 63L249.896 111.083C246.576 114.403 246.576 119.785 249.896 123.104C253.215 126.424 258.597 126.424 261.917 123.104L316.01 69.0104ZM15.5 71.5C20.1944 71.5 24 67.6944 24 63C24 58.3056 20.1944 54.5 15.5 54.5V71.5ZM46.5 54.5C41.8056 54.5 38 58.3056 38 63C38 67.6944 41.8056 71.5 46.5 71.5V54.5ZM77.5 71.5C82.1944 71.5 86 67.6944 86 63C86 58.3056 82.1944 54.5 77.5 54.5V71.5ZM108.5 54.5C103.806 54.5 100 58.3056 100 63C100 67.6944 103.806 71.5 108.5 71.5V54.5ZM139.5 71.5C144.194 71.5 148 67.6944 148 63C148 58.3056 144.194 54.5 139.5 54.5V71.5ZM170.5 54.5C165.806 54.5 162 58.3056 162 63C162 67.6944 165.806 71.5 170.5 71.5V54.5ZM201.5 71.5C206.194 71.5 210 67.6944 210 63C210 58.3056 206.194 54.5 201.5 54.5V71.5ZM232.5 54.5C227.806 54.5 224 58.3056 224 63C224 67.6944 227.806 71.5 232.5 71.5V54.5ZM263.5 71.5C268.194 71.5 272 67.6944 272 63C272 58.3056 268.194 54.5 263.5 54.5V71.5ZM294.5 54.5C289.806 54.5 286 58.3056 286 63C286 67.6944 289.806 71.5 294.5 71.5V54.5ZM0 71.5H15.5V54.5H0V71.5ZM46.5 71.5H77.5V54.5H46.5V71.5ZM108.5 71.5H139.5V54.5H108.5V71.5ZM170.5 71.5H201.5V54.5H170.5V71.5ZM232.5 71.5H263.5V54.5H232.5V71.5ZM294.5 71.5H310V54.5H294.5V71.5Z" fill="#1E1E2E"/>
</svg>
