<svg width="126" height="319" viewBox="0 0 126 319" fill="none" xmlns="http://www.w3.org/2000/svg">
<path d="M69.0104 2.98959C65.691 -0.329864 60.309 -0.329864 56.9896 2.98959L2.89592 57.0833C-0.423533 60.4027 -0.423533 65.7846 2.89592 69.1041C6.21538 72.4235 11.5973 72.4235 14.9167 69.1041L63 21.0208L111.083 69.1041C114.403 72.4235 119.785 72.4235 123.104 69.1041C126.424 65.7846 126.424 60.4027 123.104 57.0833L69.0104 2.98959ZM71.5 303.5C71.5 298.806 67.6944 295 63 295C58.3056 295 54.5 298.806 54.5 303.5H71.5ZM54.5 272.5C54.5 277.194 58.3056 281 63 281C67.6944 281 71.5 277.194 71.5 272.5H54.5ZM71.5 241.5C71.5 236.806 67.6944 233 63 233C58.3056 233 54.5 236.806 54.5 241.5H71.5ZM54.5 210.5C54.5 215.194 58.3056 219 63 219C67.6944 219 71.5 215.194 71.5 210.5H54.5ZM71.5 179.5C71.5 174.806 67.6944 171 63 171C58.3056 171 54.5 174.806 54.5 179.5H71.5ZM54.5 148.5C54.5 153.194 58.3056 157 63 157C67.6944 157 71.5 153.194 71.5 148.5H54.5ZM71.5 117.5C71.5 112.806 67.6944 109 63 109C58.3056 109 54.5 112.806 54.5 117.5H71.5ZM54.5 86.5C54.5 91.1944 58.3056 95 63 95C67.6944 95 71.5 91.1944 71.5 86.5H54.5ZM71.5 55.5C71.5 50.8056 67.6944 47 63 47C58.3056 47 54.5 50.8056 54.5 55.5H71.5ZM54.5 24.5C54.5 29.1944 58.3056 33 63 33C67.6944 33 71.5 29.1944 71.5 24.5H54.5ZM71.5 319V303.5H54.5V319H71.5ZM71.5 272.5V241.5H54.5V272.5H71.5ZM71.5 210.5V179.5H54.5V210.5H71.5ZM71.5 148.5V117.5H54.5V148.5H71.5ZM71.5 86.5V55.5H54.5V86.5H71.5ZM71.5 24.5V9H54.5V24.5H71.5ZM69.0104 2.98959C65.691 -0.329864 60.309 -0.329864 56.9896 2.98959L2.89592 57.0833C-0.423533 60.4027 -0.423533 65.7846 2.89592 69.1041C6.21538 72.4235 11.5973 72.4235 14.9167 69.1041L63 21.0208L111.083 69.1041C114.403 72.4235 119.785 72.4235 123.104 69.1041C126.424 65.7846 126.424 60.4027 123.104 57.0833L69.0104 2.98959ZM71.5 303.5C71.5 298.806 67.6944 295 63 295C58.3056 295 54.5 298.806 54.5 303.5H71.5ZM54.5 272.5C54.5 277.194 58.3056 281 63 281C67.6944 281 71.5 277.194 71.5 272.5H54.5ZM71.5 241.5C71.5 236.806 67.6944 233 63 233C58.3056 233 54.5 236.806 54.5 241.5H71.5ZM54.5 210.5C54.5 215.194 58.3056 219 63 219C67.6944 219 71.5 215.194 71.5 210.5H54.5ZM71.5 179.5C71.5 174.806 67.6944 171 63 171C58.3056 171 54.5 174.806 54.5 179.5H71.5ZM54.5 148.5C54.5 153.194 58.3056 157 63 157C67.6944 157 71.5 153.194 71.5 148.5H54.5ZM71.5 117.5C71.5 112.806 67.6944 109 63 109C58.3056 109 54.5 112.806 54.5 117.5H71.5ZM54.5 86.5C54.5 91.1944 58.3056 95 63 95C67.6944 95 71.5 91.1944 71.5 86.5H54.5ZM71.5 55.5C71.5 50.8056 67.6944 47 63 47C58.3056 47 54.5 50.8056 54.5 55.5H71.5ZM54.5 24.5C54.5 29.1944 58.3056 33 63 33C67.6944 33 71.5 29.1944 71.5 24.5H54.5ZM71.5 319V303.5H54.5V319H71.5ZM71.5 272.5V241.5H54.5V272.5H71.5ZM71.5 210.5V179.5H54.5V210.5H71.5ZM71.5 148.5V117.5H54.5V148.5H71.5ZM71.5 86.5V55.5H54.5V86.5H71.5ZM71.5 24.5V9H54.5V24.5H71.5Z" fill="#1E1E2E"/>
</svg>
