<svg width="126" height="319" viewBox="0 0 126 319" fill="none" xmlns="http://www.w3.org/2000/svg">
<path d="M56.9896 316.01C60.309 319.33 65.691 319.33 69.0104 316.01L123.104 261.917C126.424 258.597 126.424 253.215 123.104 249.896C119.785 246.576 114.403 246.576 111.083 249.896L63 297.979L14.9167 249.896C11.5973 246.576 6.21538 246.576 2.89592 249.896C-0.423533 253.215 -0.423533 258.597 2.89592 261.917L56.9896 316.01ZM54.5 15.5C54.5 20.1944 58.3056 24 63 24C67.6944 24 71.5 20.1944 71.5 15.5L54.5 15.5ZM71.5 46.5C71.5 41.8056 67.6944 38 63 38C58.3056 38 54.5 41.8056 54.5 46.5H71.5ZM54.5 77.5C54.5 82.1944 58.3056 86 63 86C67.6944 86 71.5 82.1944 71.5 77.5H54.5ZM71.5 108.5C71.5 103.806 67.6944 100 63 100C58.3056 100 54.5 103.806 54.5 108.5H71.5ZM54.5 139.5C54.5 144.194 58.3056 148 63 148C67.6944 148 71.5 144.194 71.5 139.5H54.5ZM71.5 170.5C71.5 165.806 67.6944 162 63 162C58.3056 162 54.5 165.806 54.5 170.5H71.5ZM54.5 201.5C54.5 206.194 58.3056 210 63 210C67.6944 210 71.5 206.194 71.5 201.5H54.5ZM71.5 232.5C71.5 227.806 67.6944 224 63 224C58.3056 224 54.5 227.806 54.5 232.5H71.5ZM54.5 263.5C54.5 268.194 58.3056 272 63 272C67.6944 272 71.5 268.194 71.5 263.5H54.5ZM71.5 294.5C71.5 289.806 67.6944 286 63 286C58.3056 286 54.5 289.806 54.5 294.5H71.5ZM54.5 0V15.5L71.5 15.5V0L54.5 0ZM54.5 46.5L54.5 77.5H71.5L71.5 46.5H54.5ZM54.5 108.5L54.5 139.5H71.5V108.5H54.5ZM54.5 170.5L54.5 201.5H71.5V170.5H54.5ZM54.5 232.5L54.5 263.5H71.5L71.5 232.5H54.5ZM54.5 294.5V310H71.5V294.5H54.5ZM56.9896 316.01C60.309 319.33 65.691 319.33 69.0104 316.01L123.104 261.917C126.424 258.597 126.424 253.215 123.104 249.896C119.785 246.576 114.403 246.576 111.083 249.896L63 297.979L14.9167 249.896C11.5973 246.576 6.21538 246.576 2.89592 249.896C-0.423533 253.215 -0.423533 258.597 2.89592 261.917L56.9896 316.01ZM54.5 15.5C54.5 20.1944 58.3056 24 63 24C67.6944 24 71.5 20.1944 71.5 15.5L54.5 15.5ZM71.5 46.5C71.5 41.8056 67.6944 38 63 38C58.3056 38 54.5 41.8056 54.5 46.5H71.5ZM54.5 77.5C54.5 82.1944 58.3056 86 63 86C67.6944 86 71.5 82.1944 71.5 77.5H54.5ZM71.5 108.5C71.5 103.806 67.6944 100 63 100C58.3056 100 54.5 103.806 54.5 108.5H71.5ZM54.5 139.5C54.5 144.194 58.3056 148 63 148C67.6944 148 71.5 144.194 71.5 139.5H54.5ZM71.5 170.5C71.5 165.806 67.6944 162 63 162C58.3056 162 54.5 165.806 54.5 170.5H71.5ZM54.5 201.5C54.5 206.194 58.3056 210 63 210C67.6944 210 71.5 206.194 71.5 201.5H54.5ZM71.5 232.5C71.5 227.806 67.6944 224 63 224C58.3056 224 54.5 227.806 54.5 232.5H71.5ZM54.5 263.5C54.5 268.194 58.3056 272 63 272C67.6944 272 71.5 268.194 71.5 263.5H54.5ZM71.5 294.5C71.5 289.806 67.6944 286 63 286C58.3056 286 54.5 289.806 54.5 294.5H71.5ZM54.5 0V15.5L71.5 15.5V0L54.5 0ZM54.5 46.5L54.5 77.5H71.5L71.5 46.5H54.5ZM54.5 108.5L54.5 139.5H71.5V108.5H54.5ZM54.5 170.5L54.5 201.5H71.5V170.5H54.5ZM54.5 232.5L54.5 263.5H71.5L71.5 232.5H54.5ZM54.5 294.5V310H71.5V294.5H54.5Z" fill="#1E1E2E"/>
</svg>
